# xmcd
#
# Track frame offsets: 
#        150
#        11672
#        24757
#        37795
#        53311
#        69991
#        81091
#        94705
#        113264
#        128251
#
# Disc length: 1883 seconds
#
# Revision: 0
# Processed by: cddbd v1.5.2PL0 Copyright (c) Steve Scherf et al.
# Submitted via: ExactAudioCopy v1.3
#
DISCID=5707590a
DTITLE=Janie Fricke and Lacy J. Dalton - Janie Fricke and Lacy J. Dalton (
DTITLE=CD2)
DYEAR=2000
DGENRE=Country
TTITLE0=Down To My Last Broken Heart
TTITLE1=I'll Need Someone To Hold Me (When I Cry)
TTITLE2=Do Me With Love
TTITLE3=You Don't Know Love
TTITLE4=It Ain't Easy Bein' Easy
TTITLE5=Don't Worry 'Bout Me, Baby
TTITLE6=He's A Heartache (Looking For A Place To Happen)
TTITLE7=Tell Me A Lie
TTITLE8=Let's Stop Talkin' About It
TTITLE9=Your Heart's Not In It
EXTD=
EXTT0=
EXTT1=
EXTT2=
EXTT3=
EXTT4=
EXTT5=
EXTT6=
EXTT7=
EXTT8=
EXTT9=
PLAYORDER=
